<svg width="494" height="574" viewBox="0 0 494 574" fill="none" xmlns="http://www.w3.org/2000/svg">
<path d="M30.9278 176.401C30.7037 172.585 27.9927 169.882 27.9927 165.841C27.9927 162.162 27.0144 158.634 27.0144 154.846C27.0144 147.109 33.6428 145.293 38.2656 140.149C42.4326 135.513 45.9779 130.818 50.006 125.888C54.7056 120.136 56.2718 114.083 63.214 109.994C66.9311 107.804 66.485 111.337 70.0625 111.736C72.8002 112.04 75.1682 112.715 78.1069 112.715C83.345 112.715 87.5699 108.826 92.3476 107.054C95.987 105.705 99.2674 100.827 102.838 100.033C105.866 99.3587 108.754 103.454 110.665 105.367C116.143 110.853 126.741 106.9 133.656 106.837C144.239 106.74 159.191 110.094 165.453 98.944C172.126 87.0645 167.238 71.7161 175.726 60.7869C182.982 51.4448 187.142 40.8436 197.468 34.3328C208.385 27.4489 220.914 23.8991 232.363 18.1664C237.85 15.4189 239.716 8.22477 245.19 5.48367C248.84 3.65617 253.836 2 257.909 2C267.753 2 257.668 14.0997 253.778 16.6967C246.753 21.3871 242.255 27.2687 242.255 35.8025C242.255 44.4566 246.052 46.9864 251.821 52.1866C258.911 58.5764 246.371 69.83 244.701 76.5179C243.516 81.2634 244.153 86.4862 245.19 91.1602C245.805 93.9314 248.399 98.3843 248.071 101.012C247.566 105.057 242.993 109.387 240.842 112.661C238.046 116.917 235.602 121.422 232.472 125.453C231.385 126.852 228.227 135.155 226.601 135.25C222.304 135.503 218.707 129.777 215.078 127.63C213.535 126.717 204.569 121.19 203.121 123.003C199.146 127.978 208.721 136.923 213.883 137.21C216.635 137.363 218.897 138.19 221.71 138.19C225.611 138.19 224.645 143.533 224.645 146.246C224.645 154.387 222.164 166.836 226.112 173.952C227.43 176.327 230.702 191.072 223.666 187.941C222.473 187.41 221.098 186.199 219.753 186.199C218.251 186.199 218.594 188.048 219.97 188.159C224.785 188.544 233.535 191.307 236.331 195.507C238.966 199.465 232.422 200.187 229.591 200.896C225.757 201.856 219.773 205.639 217.85 209.169C216.447 211.745 214.689 215.086 216.328 218.042C217.891 220.859 217.407 225.05 218.557 219.294C220.015 211.991 222.849 203.422 229.319 198.936C233.6 195.968 233.996 199.187 235.407 202.365C236.979 205.907 241.312 207.762 243.234 211.129C244.047 212.554 246.093 210.802 247.201 210.802C250.235 210.802 253.913 212.724 256.931 213.415C265.785 215.442 276.161 209.791 282.151 218.096C285.75 223.086 287.38 229.707 290.195 235.188C291.61 237.944 294 241.316 294 244.496C294 248.075 286.812 252.993 284.814 255.764C281.34 260.581 278.735 265.692 277.259 271.44C276.349 274.985 276.772 276.108 273.563 277.536C269.453 279.366 268.328 283.318 266.225 287.062C261.159 296.081 257.909 282.789 257.909 278.788C257.909 271.455 245.887 277.134 246.169 282.218C246.318 284.903 249.104 286.168 249.104 289.076C249.104 293.885 244.403 291.802 242.255 288.858C240.085 285.884 238.926 281.982 236.168 279.496C234.442 277.941 229.996 280.258 228.069 280.258C217.504 280.258 234.716 265.336 236.874 262.676C238.447 260.737 244.189 255.387 237.853 256.798C234.646 257.511 230.31 265.863 228.993 268.501C224.472 277.555 225.623 285.234 225.623 294.574C225.623 303.383 218.774 311.441 218.774 320.375C218.774 323.693 220.059 330.158 218.557 333.166C217.374 335.535 214.491 338.356 212.904 340.787C210.873 343.897 207.27 343.585 205.295 340.025C202.89 335.69 189.806 328.139 186.488 335.616C183.979 341.269 189.611 340.727 193.282 343.944C195.213 345.636 198.552 351.577 194.859 353.524C190.623 355.757 184.292 354.721 179.64 354.721C173.285 354.721 167.217 354.868 160.996 355.647C157.811 356.046 153.417 354.637 150.832 357.225C148.03 360.032 153.241 363.935 154.691 365.499C159.296 370.466 176.705 366.472 176.705 374.317C176.705 381.795 164.675 382.872 161.54 388.524C160.29 390.777 157.018 389.53 154.691 390.048C151.625 390.73 148.576 395.843 146.593 398.05C145.327 399.458 147.501 399.791 148.332 399.791C150.285 399.791 150.012 399.089 151.267 397.832C153.461 395.635 157.02 393.913 160.072 393.913C165.211 393.913 160.23 409.322 157.572 411.984C152.487 417.076 153.224 420.854 153.224 428.423C153.224 431.271 153.057 434.18 153.224 437.023C153.342 439.036 159.05 437.641 160.507 438.057C168.292 440.285 154.631 451.357 152.245 452.21C149.374 453.237 146.375 451.36 146.375 455.204C146.375 457.6 146.353 461.976 144.636 463.695C142.072 466.263 130.026 475.235 141.973 475.235C144.416 475.235 147.415 474.759 149.799 475.289C152.881 475.975 153.524 480.134 158.116 480.134C162.61 480.134 161.845 483.211 159.094 476.976C157.953 474.391 152.735 467.838 154.963 469.574C157.752 471.746 162.387 472.295 165.943 472.295C168.004 472.295 170.575 471.897 172.574 472.513C174.286 473.041 175.571 474.819 177.194 475.18C179.693 475.736 184.532 476.066 184.532 479.644C184.532 484.006 187.804 483.556 190.402 486.012C194.303 489.702 199.068 495.64 194.75 501.199C190.852 506.218 184.944 510.432 178.226 506.588C178.124 506.529 169.136 488.872 168.878 495.592C168.758 498.707 167.001 512.546 161.54 507.078C157.284 502.815 161.494 507.191 162.518 509.037C163.756 511.268 163.559 516.39 160.072 514.644C154.673 511.94 150.618 506.363 153.441 500.709C154.757 498.073 155.37 496.79 151.267 496.79C147.166 496.79 145.478 501.607 142.951 504.138C140.826 506.266 140.359 508.28 138.059 510.071C134.008 513.226 130.509 512.466 125.286 512.466C123.683 512.466 108.773 513.673 108.273 511.922C107.537 509.34 107.415 506.825 106.045 504.628C104.337 501.892 98.1592 501.763 95.5001 501.689C90.3068 501.544 85.14 500.709 79.8462 500.709C76.8435 500.709 70.343 500.865 68.1058 498.749C65.6371 496.415 64.2173 492.579 60.768 495.266C54.0019 500.536 53.2386 477.608 52.6693 474.473C51.4212 467.598 55.0194 462.439 56.4197 456.129C58.1469 448.345 57.3437 439.749 57.3437 431.634C57.3437 428.713 57.3437 425.792 57.3437 422.871C57.3437 419.244 55.3211 417.505 53.6477 414.488C51.6488 410.885 48.1484 409.641 44.4076 408.392C39.6512 406.804 37.4002 404.067 34.3521 400.336C31.473 396.812 31.4909 396.282 30.8735 391.953C30.6259 390.218 29.9486 382.4 27.9927 382.155C25.7906 381.88 23.8003 381.019 21.1441 381.176C17.193 381.408 20.2058 387.546 21.3616 388.796C23.2183 390.804 26.2094 394.88 26.036 397.832C25.7811 402.171 16.1565 393.068 15.3283 392.498C7.69208 387.24 4.73864 383.124 8.42537 374.099C11.0487 367.678 12.3388 363.466 12.3388 356.463C12.3388 351.474 12.3388 346.484 12.3388 341.494C12.3388 338.035 6.91456 311.833 10.9256 310.686C23.1621 307.185 14.635 321.819 19.1874 322.389C21.7554 322.71 21.2532 326.41 21.1441 328.267C21.0967 329.075 19.4138 330.131 21.1441 330.227C23.7861 330.374 26.8814 330.525 29.4059 329.683C40.5933 325.948 40.5397 308.984 35.6022 300.616C33.2067 296.556 31.5164 292.277 27.0144 290.274C24.6476 289.22 21.7051 289.508 19.1874 288.314C8.94003 283.453 12.3388 292.051 12.3388 298.438C12.3388 299.508 13.0111 306.31 11.7953 306.658C7.26137 307.955 5.21903 304.408 3.53353 300.833C0.821175 295.081 2.33539 285.28 3.31612 279.278C4.32939 273.077 6.83377 266.667 9.89292 261.152C12.3665 256.693 10.2617 247.733 11.4148 242.536C11.9709 240.03 13.7886 238.505 15.7631 240.087C17.9025 241.801 14.9579 246.228 18.209 248.143C19.8135 249.088 34.0948 255.432 29.4059 249.395C27.4164 246.833 24.687 245.139 22.6661 242.536C21.1954 240.643 20.7591 234.515 17.2307 236.386C14.4325 237.869 14.959 241.57 13.0998 237.148C11.417 233.145 12.3388 227.724 12.3388 223.431C12.3388 213.695 10.2683 201.642 14.2956 192.568C15.9899 188.75 22.5854 180.581 27.0144 180.32C33.9934 179.909 26.3597 196.977 33.3737 196.977C35.374 196.977 42.5613 194.148 43.6466 195.507C45.4948 197.821 45.2687 202.346 46.5817 205.305C47.996 208.492 50.9805 209.223 53.9738 209.768C58.3995 210.574 61.3374 211.282 65.1707 213.415C67.3482 214.627 70.4667 216.721 72.9976 216.572C75.6787 216.414 73.1166 207.561 72.9976 206.012C72.6793 201.869 69.6759 203.009 67.1274 201.658C63.351 199.656 68.3187 194.67 70.0625 193.547C76.8644 189.168 85.5587 187.155 87.6188 177.871C88.6196 173.361 86.6693 166.603 93.5433 166.603C99.8783 166.603 104.771 166.947 110.61 168.617C114.502 169.731 109.494 191.74 108.436 194.799C107.259 198.204 107.24 201.225 107.24 204.815C107.24 209.827 109.561 205.999 112.35 205.033C114.904 204.147 119.415 204.314 120.938 206.557C122.476 208.823 124.866 213.524 128.221 213.524C132.355 213.524 122.585 203.829 121.916 203.345C117.252 199.972 111.047 193.387 108.436 188.159C107.15 185.583 110.703 178.939 112.35 177.163C113.932 175.457 120.938 168.873 120.938 167.093C120.938 160.685 113.376 157.373 117.513 150.927C120.526 146.234 125.2 144.02 129.254 140.585C133.583 136.917 137.789 133.47 143.44 132.093C145.776 131.524 154.729 128.814 156.92 130.569C159.164 132.367 158.116 137.008 158.116 139.659C158.116 142.079 161.364 144.068 163.497 144.068C166.464 144.068 170.087 135.873 171.813 133.509C173.247 131.543 177.968 127.56 180.618 127.412C184.021 127.223 185.51 128.224 185.51 124.255C185.51 122.058 186.691 115.829 183.553 115.655C179.437 115.426 178.632 116.682 175.291 118.594C172.29 120.312 170.853 121.802 167.41 122.568C164.108 123.303 162.447 122.513 159.094 122.513C153.828 122.513 144.452 121.562 140.016 125.017C135.191 128.775 133.675 129.372 127.297 129.372C124.654 129.372 122.045 127.06 119.47 126.487C116.346 125.792 112.407 126.432 109.197 126.432C106.294 126.432 105.03 129.222 102.349 129.372C99.5716 129.526 97.6719 127.412 95.0109 127.412C90.4301 127.412 84.3421 127.894 81.5855 132.311C80.0851 134.715 78.8228 135.597 77.6721 138.19C76.9783 139.753 74.1215 142.83 73.976 144.068C73.2545 150.21 62.8091 153.292 58.8113 157.295C56.3019 159.808 55.6176 162.839 54.4086 166.168C53.6877 168.153 52.041 169.513 51.4735 171.502C50.9986 173.167 48.6195 174.042 48.5384 175.421C48.2795 179.829 50.6926 178.267 53.2129 180.538C55.3573 182.471 53.2803 185.245 55.8762 186.689C57.6033 187.65 61.4645 186.191 62.1812 188.703C62.357 189.319 61.2441 195.615 60.768 195.997C58.5782 197.751 59.6829 200.896 55.8762 200.896C53.1152 200.896 51.6299 198.814 51.4735 195.997C51.2219 191.461 42.4807 187.812 39.2439 185.219C37.3138 183.673 37.6903 180.447 36.3088 179.341C34.8031 178.134 32.5687 176.243 30.9278 175.421" stroke="#082C44" stroke-width="3" stroke-linecap="round"/>
<path d="M67.856 105.087C65.6074 102.865 62.3757 95.3018 58.9459 95.3018C57.2007 95.3018 58.5275 97.2376 57.7359 98.02C57.0496 98.6984 56.9455 91.7353 57.0209 90.9527C57.454 86.458 60.6125 83.1876 64.391 81.1128C66.7109 79.8388 70.826 82.1649 70.826 78.6664C70.826 76.3709 68.1891 71.1487 70.056 69.0983C72.5747 66.3322 75.902 69.8594 78.801 69.8594C83.8735 69.8594 89.3716 71.3243 92.6061 66.7063C94.9823 63.3137 96.9407 51.948 98.4911 55.7792C100.306 60.263 96.9375 73.4065 93.5961 76.7093C92.0859 78.202 87.8235 76.8312 87.656 79.645C87.5069 82.1515 88.008 86.4892 88.701 88.8868C89.5138 91.6986 90.4643 92.9986 87.161 94.8125C83.6182 96.758 81.5442 98.5432 79.516 102.152C78.1244 104.628 74.2001 108.315 71.321 108.947C68.3187 109.607 68.4036 103.89 66.866 103.13" stroke="#082C44" stroke-width="3" stroke-linecap="round"/>
<path d="M210.845 413.387C206.722 412.924 202.773 406.455 198.434 404.768C194.239 403.137 193.941 397.091 197.247 393.748C199.473 391.497 207.73 388.292 210.845 388.292C212.109 388.292 211.714 391.572 212.356 392.22C213.273 393.148 216.329 393.921 217.644 394.512C226.766 398.611 238.417 382.488 247.753 381.964C251.66 381.744 254.868 380 258.653 380C264.22 380 262.504 384.02 267.178 386.383C269.424 387.518 279.404 389.288 276.351 393.257C273.231 397.312 269.615 402.747 267.178 407.059C266.785 407.754 263.512 410.104 264.48 411.205C265.634 412.518 272.794 411.602 274.463 411.914C281.4 413.213 284.661 412.71 284.661 405.532C284.661 399.385 284.661 393.239 284.661 387.092C284.661 384.401 285.436 385.953 287.143 387.365C289.477 389.295 293.243 389.062 294.589 391.784C296.519 395.685 298.24 399.597 299.985 403.568C301.902 407.928 293.67 409.449 294.428 412.896C295.454 417.567 301.603 422.855 304.518 426.644C306.654 429.421 307 434.068 307 437.446C307 441.872 301.172 442.552 301.172 447.32C301.172 451.243 303.266 462.5 300.633 465.923C297.598 469.868 292.77 470.785 289.032 473.725C285.989 476.117 281.974 477.438 278.348 478.253C272.469 479.573 273.747 489 268.635 489C264.13 489 258.581 482.199 254.552 480.162C249.89 477.805 244.269 474.583 239.011 474.27C237.119 474.158 238.04 464.253 238.04 462.486C238.04 448.826 216.4 459.197 214.784 447.757C214.035 442.461 216.678 434.928 213.327 430.572C211.504 428.202 207.597 424.933 204.531 424.244C201.174 423.489 201.032 416.493 202.643 413.933C203.752 412.171 208.902 405.594 208.902 408.477" stroke="#082C44" stroke-width="3" stroke-linecap="round"/>
<path d="M294.624 538.803C294.624 533.129 294.228 529.382 290.228 525.051C288.93 523.645 281.07 521.007 283.444 520.14C291.862 517.062 294.767 514.112 290.228 505.897C289.69 504.923 287.274 498.186 289.305 497.602C295.091 495.94 298.678 493.819 302.873 489.198C307.183 484.452 309.279 478.851 312.642 473.536C314.377 470.796 314.553 467.315 317.581 465.624C320.968 463.731 321 466.512 321 469.062C321 476.829 318.986 481.433 316.116 488.489C313.23 495.58 302.832 501.828 302.439 509.335C302.013 517.474 303.971 525.019 299.508 532.145C297.361 535.574 291.693 545.592 291.693 535.856" stroke="#082C44" stroke-width="3" stroke-linecap="round"/>
<path d="M211.312 509.121C211.312 512.959 221.648 513 224.854 513C232.258 513 228.134 505.438 224.854 502.332C220.17 497.897 214.405 493.367 212.064 487.031C210.076 481.648 203.613 476.147 197.771 476.147C195.914 476.147 191 475.205 191 478.087C191 481.742 194.09 481.966 196.803 481.966C200.25 481.966 194.793 485.338 197.018 487.57C198.233 488.788 202.459 489.149 202.607 491.664C202.69 493.088 203.465 499.101 202.392 500.177C201.58 500.991 199.764 499.794 198.953 500.608C198.224 501.339 198.635 503.239 199.705 503.302C202.574 503.471 209.979 508.388 211.312 511.06" stroke="#082C44" stroke-width="3" stroke-linecap="round"/>
<path d="M323.487 524.193C326.672 524.193 330.233 525.331 333.226 525.165C337.133 524.948 330.226 516.985 329.817 516.421C326.655 512.053 321.187 507.513 318.834 502.82C318.374 501.903 333.682 497.946 335.12 497.531C342.516 495.395 349.384 492.708 355.138 498.448C360.442 503.739 364.009 512.119 371.695 514.478C374.529 515.348 376.982 516.421 379.973 516.421C383.188 516.421 382.343 514.141 384.355 512.535C389.837 508.16 391.267 509.238 394.094 515.504C397.076 522.114 404.32 526.029 404.32 533.422C404.32 536.149 401.254 536.18 401.398 538.766C401.533 541.193 405.359 541.417 406.7 543.137C410.539 548.061 405.021 552.419 401.182 553.554C397.567 554.623 396.017 552.253 392.579 551.395C388.577 550.397 384.84 550.424 380.73 550.424C377.59 550.424 375.972 549.926 375.103 553.392C374.153 557.183 371.35 562.694 368.07 564.996C360.673 570.189 356.433 564.32 352.704 558.412C347.899 550.799 345.246 544.755 335.931 541.896C331.883 540.653 319.984 540.825 317.86 536.823C314.883 531.212 320.36 528.824 323.271 525.92C327.694 521.508 329.145 526.136 334.2 526.136" stroke="#082C44" stroke-width="3" stroke-linecap="round"/>
<path d="M400.736 500C396.848 500 395.18 502.336 399.777 503.011C402.854 503.463 401.694 509.426 401.694 511.825C401.694 515.593 404.281 517.99 406.008 521.186C408.349 525.517 409.364 532.567 409.364 537.445C409.364 545.99 408.1 554.727 412.453 562.298C414.532 565.915 418.297 573.013 423.264 571.879C427.187 570.983 425.661 559.085 425.661 555.729C425.661 547.124 425.581 538.622 431.999 532.025C433.938 530.032 441 526.597 441 523.649C441 521.046 434.773 518.435 432.905 517.737C424.85 514.726 417.417 510.003 415.062 501.533C413.883 497.288 402.087 505.734 399.777 500.985" stroke="#082C44" stroke-width="3" stroke-linecap="round"/>
<path d="M433.959 504.307C433.959 501.79 433.815 499.229 433.959 496.717C434.179 492.885 439.572 496.717 441.578 496.717C445.184 496.717 446.369 497.211 447.456 493.66C448.589 489.956 447.439 485.391 447.673 481.536C447.958 476.85 460.682 484.382 462.367 484.382C465.127 484.382 467.386 485.331 470.204 485.331C474.445 485.331 474.132 485.295 476.082 488.599C477.496 490.997 480 490.233 480 493.449C480 496.267 478.921 499.743 475.592 500.459C468.406 502.006 460.247 499.018 453.061 500.565C447.023 501.864 452.284 510 444.245 510C439.757 510 432 507.353 432 502.41" stroke="#082C44" stroke-width="3" stroke-linecap="round"/>
<path d="M355.059 314.212C362.718 314.212 369.664 318.129 377.06 318.129C381.817 318.129 388.481 315.27 393.195 317.367C397.78 319.408 404.347 316.04 401.507 324.004C400.607 326.525 398.771 328.756 396.889 330.64C395.434 332.097 392.217 331.123 392.217 333.305C392.217 338.338 401.564 345.543 394.173 349.243C393.9 349.38 387.263 350.087 390.261 350.44C393.246 350.792 398.4 353.402 400.963 354.846C403.845 356.469 405.907 359.257 405.907 362.625C405.907 363.476 403.076 370.733 404.929 369.805C409.006 367.764 409.818 355.345 409.818 351.419C409.818 345.275 411.774 340.308 411.774 334.339C411.774 326.453 417.094 327.372 421.553 331.837C427.476 337.768 425.464 340.346 425.464 347.503C425.464 350.667 425.415 353.114 424.269 356.097C423.281 358.67 419.597 360.711 419.597 363.658C419.597 369.793 421.22 371.981 427.42 371.981C429.173 371.981 432.733 372.665 434.265 371.763C436.618 370.378 435.243 362.244 435.243 359.742C435.243 351.159 430.353 343.276 430.353 334.556C430.353 329.679 429.463 323.025 423.508 323.025C419.316 323.025 412.05 325.982 410.851 320.577C409.331 313.73 423.045 312.396 427.203 311.057C439.642 307.054 453.322 294.311 466.534 299.036C473.056 301.368 476.055 305.804 476.312 313.016C476.45 316.87 475.528 320.327 475.335 324.004C475.115 328.183 476.436 328.969 478.757 332.326C482.624 337.919 483.157 345.729 483.157 352.398C483.157 359.048 484.966 367.349 486.852 373.722C488.266 378.503 492.706 383.752 491.904 388.572C491.463 391.219 479.458 397.127 479.246 393.522C478.883 387.339 484.135 382.911 484.135 377.366C484.135 375.156 486.47 371.981 482.18 371.981C479.382 371.981 478.219 375.273 477.29 377.366C474.738 383.115 472.69 384.71 466.534 384.71C463.58 384.71 460.201 384.236 457.299 384.764C454.276 385.314 453.391 388.43 450.888 389.823C438.388 396.776 439.905 416.042 455.343 416.042C460.609 416.042 467.512 421.523 467.512 426.812C467.512 429.614 466.534 432.022 466.534 434.645C466.534 437.038 468.49 438.906 468.49 441.009C468.49 445.004 466.391 445.362 462.623 446.83C459.665 447.982 456.161 447.191 453.061 447.591C449.159 448.096 445.27 449.242 441.327 449.332C433.341 449.514 437.469 456.555 435.025 462.061C433.692 465.066 431.646 465.914 429.376 467.935C427.298 469.785 424.105 467.189 428.832 469.894C432.156 471.796 439.438 468.685 439.154 473.81C438.85 479.29 430.616 482.312 433.776 488.008C436.226 492.423 431.916 499.151 426.985 496.33C422.998 494.049 421.086 489.476 415.686 489.476C412.733 489.476 411.399 490.915 408.841 492.196C404.918 494.16 405.091 492.575 402.485 489.966C399.817 487.295 398.283 483.8 395.64 481.154C392.703 478.213 392.792 476.748 396.889 476.748C397.775 476.748 403.843 477.189 403.843 476.204C403.843 473.971 398.084 472.986 398.084 469.894C398.084 467.631 401.163 467.612 401.018 464.998C400.896 462.799 397.28 461.072 395.585 460.102C393.477 458.896 390.302 457.646 387.817 458.199C385.68 458.674 382.777 460.054 380.483 458.906C374.481 455.901 368.924 454.502 362.338 453.303C359.402 452.768 357.517 454.364 355.059 454.228C352.499 454.085 351.441 448.647 349.68 446.884C344.889 442.087 348.879 436.749 341.151 433.884C337.42 432.5 323.308 430.717 329.254 423.44C331.273 420.969 335.009 419.687 337.946 419.033C339.846 418.611 343.958 419.705 342.129 416.042C339.93 411.637 333.298 402.893 335.719 397.438C336.889 394.802 338.766 394.646 341.369 394.501C345.423 394.275 340.724 389.906 339.902 388.626C338.427 386.329 335.885 382.735 333.492 381.337C331.56 380.209 329.118 380.379 327.461 379.052C325.803 377.724 322.86 379.65 321.051 377.638C319.904 376.362 320.834 371.293 320.834 369.533C320.834 363.84 336.848 371.275 325.234 366.106C322.63 364.947 320.389 361.745 318.389 359.742C314.415 355.763 319.944 356.315 322.79 356.315C328.005 356.315 333.22 356.315 338.435 356.315C341.391 356.315 344.376 358.214 346.747 356.315C352.359 351.819 343.68 364.918 347.236 365.127C353.737 365.51 358.989 354.314 361.143 349.461C361.711 348.182 363.606 345.436 364.837 344.783C367.613 343.311 369.202 340.101 371.193 337.222C376.513 329.528 368.476 325.962 360.926 325.962C355.176 325.962 348.214 323.688 348.214 317.15C348.214 310.222 356.041 310.625 359.948 313.233" stroke="#082C44" stroke-width="3" stroke-linecap="round"/>
<line x1="53.5" y1="284" x2="53.5" y2="241" stroke="#AAB1C0" stroke-width="5"/>
<circle cx="53.5" cy="242.5" r="10.5" fill="#61C6BB"/>
<line x1="430.5" y1="429" x2="430.5" y2="386" stroke="#AAB1C0" stroke-width="5"/>
<circle cx="430.5" cy="386.5" r="10.5" fill="#61C6BB"/>
<line x1="384.5" y1="452" x2="384.5" y2="409" stroke="#AAB1C0" stroke-width="5"/>
<circle cx="384.5" cy="409.5" r="10.5" fill="#61C6BB"/>
<line x1="182.5" y1="274" x2="182.5" y2="231" stroke="#AAB1C0" stroke-width="5"/>
<circle cx="182.5" cy="232.5" r="10.5" fill="#61C6BB"/>
<line x1="88.5" y1="371" x2="88.5" y2="327" stroke="#AAB1C0" stroke-width="5"/>
<circle cx="88.5" cy="328.5" r="10.5" fill="#61C6BB"/>
</svg>
