<svg width="41" height="33" viewBox="0 0 41 33" fill="none" xmlns="http://www.w3.org/2000/svg">
<path d="M31.4756 32.2871C29.1611 32.2871 27.1296 31.5156 25.3809 29.9727C23.6836 28.3783 22.835 26.0381 22.835 22.9521C22.835 19.9691 23.5807 16.9603 25.0723 13.9258C26.5638 10.8913 28.4154 8.16536 30.627 5.74805C32.8385 3.33073 34.9987 1.60775 37.1074 0.579102C37.2617 0.476237 37.5189 0.424805 37.8789 0.424805C38.4447 0.424805 38.9333 0.630534 39.3447 1.04199C39.8076 1.45345 40.0391 1.94206 40.0391 2.50781C40.0391 3.125 39.7305 3.66504 39.1133 4.12793C38.0332 4.89941 36.8245 6.08236 35.4873 7.67676C34.2015 9.21973 33.07 10.8913 32.0928 12.6914C31.167 14.4915 30.7041 16.1888 30.7041 17.7832C32.9671 17.7832 34.9215 18.349 36.5674 19.4805C38.2132 20.612 39.0361 22.4378 39.0361 24.958C39.0361 27.4268 38.2132 29.2783 36.5674 30.5127C34.973 31.6956 33.2757 32.2871 31.4756 32.2871ZM8.63965 32.2871C6.3252 32.2871 4.29362 31.5156 2.54492 29.9727C0.847656 28.3783 -0.000976562 26.0381 -0.000976562 22.9521C-0.000976562 19.9691 0.744792 16.9603 2.23633 13.9258C3.72786 10.8913 5.57943 8.16536 7.79102 5.74805C10.0026 3.33073 12.1628 1.60775 14.2715 0.579102C14.4258 0.476237 14.6829 0.424805 15.043 0.424805C15.6087 0.424805 16.0973 0.630534 16.5088 1.04199C16.9717 1.45345 17.2031 1.94206 17.2031 2.50781C17.2031 3.125 16.8945 3.66504 16.2773 4.12793C15.1973 4.89941 13.9886 6.08236 12.6514 7.67676C11.3656 9.21973 10.234 10.8913 9.25684 12.6914C8.33105 14.4915 7.86816 16.1888 7.86816 17.7832C10.1312 17.7832 12.0856 18.349 13.7314 19.4805C15.3773 20.612 16.2002 22.4378 16.2002 24.958C16.2002 27.4268 15.3773 29.2783 13.7314 30.5127C12.137 31.6956 10.4398 32.2871 8.63965 32.2871Z" fill="white"/>
</svg>
